<?xml version="1.0" standalone="no"?>
<!DOCTYPE svg PUBLIC "-//W3C//DTD SVG 20010904//EN"
 "http://www.w3.org/TR/2001/REC-SVG-20010904/DTD/svg10.dtd">
<svg version="1.0" xmlns="http://www.w3.org/2000/svg"
 width="141.000000pt" height="141.000000pt" viewBox="0 0 141.000000 141.000000"
 preserveAspectRatio="xMidYMid meet">
<metadata>
Created by potrace 1.11, written by Peter Selinger 2001-2013
</metadata>
<g transform="translate(0.000000,141.000000) scale(0.100000,-0.100000)"
fill="#000000" stroke="none">
<path d="M483 1395 c-11 -8 -42 -49 -68 -92 -27 -43 -49 -79 -51 -81 -1 -2
-11 1 -21 6 -21 12 -39 4 -44 -18 -5 -22 51 -243 65 -257 10 -10 94 6 239 47
45 13 49 39 11 67 l-26 19 92 155 c51 85 94 157 97 162 2 4 -58 7 -134 7 -106
0 -144 -3 -160 -15z"/>
<path d="M757 1310 c-39 -65 -56 -104 -50 -113 27 -44 97 -137 104 -137 6 0
170 100 208 127 10 7 -123 202 -145 212 -47 21 -57 14 -117 -89z"/>
<path d="M985 988 c-3 -13 -16 -69 -30 -125 -14 -56 -25 -109 -25 -116 0 -23
30 -29 56 -12 23 15 24 14 57 -37 19 -29 64 -100 102 -157 l67 -104 54 112
c30 61 56 122 59 134 4 16 -9 47 -45 106 -27 46 -50 87 -50 90 0 4 9 14 20 24
41 35 26 45 -117 81 -126 32 -141 32 -148 4z"/>
<path d="M102 817 c-34 -56 -62 -112 -62 -124 0 -52 3 -53 139 -53 109 0 128
2 137 18 6 9 23 38 38 64 l27 47 -101 76 c-56 41 -105 75 -108 75 -4 0 -35
-46 -70 -103z"/>
<path d="M462 658 c-7 -7 -12 -21 -12 -32 0 -21 -5 -21 -189 -19 l-189 2 63
-127 c34 -70 72 -135 83 -145 16 -15 39 -19 123 -20 101 -2 103 -2 109 -27 3
-14 13 -26 22 -28 18 -3 208 180 208 201 0 12 -190 207 -202 207 -2 0 -9 -5
-16 -12z"/>
<path d="M801 477 c-1 -73 3 -138 8 -146 6 -10 39 -13 132 -13 186 -1 188 0
214 26 45 45 42 63 -26 167 l-63 95 -132 1 -132 1 -1 -131z"/>
<path d="M39 90 c0 -3 -3 -24 -5 -47 -5 -47 12 -61 18 -15 l4 27 14 -28 c7
-15 18 -26 23 -24 13 4 18 77 6 77 -5 0 -9 -10 -9 -22 -1 -22 -2 -21 -25 7
-14 17 -25 28 -26 25z"/>
<path d="M133 83 c-8 -3 -13 -22 -13 -46 l0 -41 20 22 c12 12 25 22 30 22 6 0
10 7 10 15 0 17 -29 34 -47 28z m27 -29 c0 -8 -4 -12 -10 -9 -5 3 -10 10 -10
16 0 5 5 9 10 9 6 0 10 -7 10 -16z"/>
<path d="M245 71 c-3 -10 -4 -25 -3 -32 2 -7 -5 -15 -14 -17 -14 -3 -18 3 -18
27 0 17 -4 31 -9 31 -14 0 -10 -58 5 -71 7 -6 22 -8 34 -4 16 5 20 15 20 46 0
42 -5 50 -15 20z"/>
<path d="M273 78 c-2 -5 3 -8 11 -8 10 0 13 -7 11 -21 -3 -12 0 -29 5 -38 7
-12 9 -7 10 22 0 20 5 37 10 37 6 0 10 4 10 9 0 11 -50 9 -57 -1z"/>
<path d="M455 80 c-3 -4 -22 -6 -43 -3 l-37 5 -2 -41 c-1 -23 3 -41 8 -41 5 0
9 6 9 14 0 8 9 18 20 21 11 3 20 11 20 16 0 5 5 9 10 9 6 0 9 -3 9 -7 -4 -26
2 -53 11 -48 6 4 7 12 3 18 -3 7 3 4 14 -6 22 -19 44 -24 25 -5 -8 8 -8 17 -1
30 5 10 8 22 5 27 -8 12 -45 21 -51 11z m-41 -19 c3 -5 -1 -11 -9 -15 -9 -3
-15 0 -15 9 0 16 16 20 24 6z m76 1 c0 -13 -12 -22 -22 -16 -10 6 -1 24 13 24
5 0 9 -4 9 -8z"/>
<path d="M536 74 c-31 -30 -13 -74 30 -74 14 0 25 8 29 21 l7 21 20 -22 c21
-23 59 -24 66 -2 3 11 0 12 -15 3 -14 -7 -23 -7 -31 1 -25 25 -1 55 33 42 22
-9 18 3 -4 16 -15 7 -25 5 -42 -9 -21 -17 -23 -17 -41 1 -22 22 -32 23 -52 2z
m48 -21 c7 -18 -20 -47 -35 -37 -11 6 -12 38 -2 47 12 13 31 7 37 -10z"/>
<path d="M710 44 c0 -37 3 -44 20 -44 11 0 20 5 20 10 0 6 -8 10 -17 10 -16 1
-16 2 2 12 19 11 19 11 0 19 -19 6 -18 8 5 17 14 6 21 11 15 12 -5 1 -18 3
-27 5 -15 3 -18 -4 -18 -41z"/>
<path d="M783 83 c-19 -7 -15 -31 7 -45 27 -17 25 -31 -2 -23 -18 6 -20 4 -12
-5 7 -6 20 -10 30 -8 27 5 30 35 5 43 -12 3 -21 11 -21 16 0 6 9 7 22 3 20 -6
21 -5 9 10 -14 17 -18 18 -38 9z"/>
<path d="M850 75 c-8 -9 -6 -17 5 -29 9 -9 21 -16 26 -16 6 0 7 -5 4 -10 -4
-7 -14 -6 -28 2 -20 10 -21 10 -8 -5 17 -22 40 -22 48 -1 4 11 -3 24 -18 36
-24 19 -24 19 -1 13 12 -4 22 -2 22 3 0 16 -38 21 -50 7z"/>
<path d="M959 69 c-23 -23 -24 -33 -3 -53 21 -22 51 -20 64 4 25 47 -24 86
-61 49z m49 -25 c2 -12 -4 -24 -12 -27 -19 -7 -40 18 -32 39 8 22 40 13 44
-12z"/>
<path d="M1124 78 c-2 -3 1 -8 7 -10 5 -2 11 -18 11 -36 1 -44 18 -41 18 3 0
19 5 35 10 35 6 0 10 3 10 8 0 9 -50 10 -56 0z"/>
<path d="M1202 77 c-12 -16 -13 -77 -1 -77 5 0 9 7 9 15 0 8 7 15 15 15 16 0
40 36 28 43 -25 13 -43 14 -51 4z m29 -20 c-1 -12 -15 -9 -19 4 -3 6 1 10 8 8
6 -3 11 -8 11 -12z"/>
<path d="M1269 79 c0 -8 -2 -22 -4 -32 -4 -20 19 -47 40 -47 16 0 31 27 29 50
-1 8 -2 22 -3 30 -1 12 -3 12 -10 2 -4 -8 -7 -25 -5 -38 2 -19 -2 -24 -14 -22
-10 2 -17 14 -19 32 -2 30 -12 49 -14 25z"/>
<path d="M1350 78 c0 -4 5 -8 10 -8 6 0 10 -6 9 -12 -4 -30 2 -59 10 -54 4 3
7 17 6 31 -2 15 3 29 13 35 10 5 13 10 7 11 -5 0 -20 2 -32 3 -13 2 -23 -1
-23 -6z"/>
<path d="M0 40 c0 -22 4 -40 8 -40 5 0 9 18 10 40 1 22 -3 40 -8 40 -6 0 -10
-18 -10 -40z"/>
<path d="M1040 51 c0 -36 25 -59 48 -44 19 11 29 73 13 73 -6 0 -11 -14 -11
-31 0 -24 -4 -30 -17 -27 -13 2 -17 11 -15 31 2 15 -1 27 -7 27 -6 0 -11 -13
-11 -29z"/>
</g>
</svg>
